<svg xmlns="http://www.w3.org/2000/svg" viewBox="0 0 208 208"><defs><style>.cls-1{fill:#097cb0}</style></defs><g id="Layer_1" data-name="Layer 1"><path class="cls-1" d="M25.81 118.32a7.23 7.23 0 107.19 7.22 7.22 7.22 0 00-7.19-7.22zM95 118.32a7.23 7.23 0 107.22 7.22 7.22 7.22 0 00-7.22-7.22z"/><path class="cls-1" d="M117.54 91.63a6.57 6.57 0 00-4.76-1.54h-8.38a3 3 0 01-2.06-1.24l-8.1-15.46a9 9 0 00-7.45-4.5H34.44A9 9 0 0027 73.4l-8.1 15.45a2.93 2.93 0 01-2.05 1.24H7.1a4.46 4.46 0 00-4.45 4.46v6.87a4.46 4.46 0 004.45 4.46h4.56l-6.32 11.76a10 10 0 00-1.06 4.22V160a6.22 6.22 0 006.22 6.21h9.87a6.22 6.22 0 006.22-6.21v-3.35a.23.23 0 01.22-.22H95a3 3 0 01.66 0v3c0 4.47 1.89 6.73 5.5 6.73h10a4.79 4.79 0 003.54-1.5 7.4 7.4 0 001.6-5.36v-36.18c.13-5.73-.58-7.09-.81-7.53l-5.08-9.71h2.54a6.34 6.34 0 006.62-6.23v-3a6.33 6.33 0 00-2.03-5.02zm-4 8c0 .09 0 .29-.65.27h-4.28a4.74 4.74 0 00-4.36 7.23l5.82 11.11a29.47 29.47 0 01.2 4.83v36.63a3 3 0 010 .52h-8.65V155.75a5.14 5.14 0 00-1.78-3.75 7.29 7.29 0 00-4.72-1.56H26.81a6.23 6.23 0 00-6.22 6.22V160a.23.23 0 01-.22.21H10.5a.22.22 0 01-.22-.21v-38.14a4.19 4.19 0 01.35-1.38l8-14.89a3.79 3.79 0 00-3.42-5.71H8.65v-3.79h8.18a8.87 8.87 0 007.37-4.45l8.09-15.45a3.08 3.08 0 012.15-1.3h52.35a3.11 3.11 0 012.14 1.29L97 91.63a8.86 8.86 0 007.37 4.46h8.77a1.12 1.12 0 01.32 0 2 2 0 010 .49z"/><path class="cls-1" d="M26.85 105.88h68.5a3 3 0 000-6h-2.46a5.14 5.14 0 00-4.78-3.24h-5.43v-1.85a8 8 0 10-5.85 0v1.84h-5A5.14 5.14 0 0067 99.88H26.85a3 3 0 100 6zM201.61 161.34l-2.72-39.29a54.94 54.94 0 00-2.07-11.59l-8.5-28.95a6.47 6.47 0 00-8.14-5.19l-7.59 1.49c-2.59.48-5.53 4.26-5.53 4.26L156.5 95.73a2.23 2.23 0 01-1.75.86h-17.34a4.81 4.81 0 00-4.82 4.81v.21a4.78 4.78 0 004.77 4.77h22.46a4.94 4.94 0 003.54-1.51l7.94-8.26 3.44 19-10.58 17.73a10.51 10.51 0 00-1.62 4.22c-.84 5.56-3.09 19.5-3.48 21.69-.55 3 1.69 6.39 4.47 6.73a6 6 0 006.9-4.71l4-21.26a4.17 4.17 0 01.79-1.77l9.39-12.4 7.59 37.72c1.36 2.79 3.74 3.22 6.27 2.45a4.27 4.27 0 003.14-4.67z"/><path class="cls-1" d="M123.14 88.93h31.74v4.92h-31.74zM123.14 82.3h31.74v4.92h-31.74zM146.7 63.21a1.5 1.5 0 001.8 1.12l6.44-1.48 3.32-.76 22.26-5.14c-3.92-8.47-7.64-9.09-10.32-8.47l-7.42 1.73c-2.29.53-4.87 2.1-5.2 8.41l-9.87 2.28a1.51 1.51 0 00-1.13 1.8zM172.66 73.72a11.75 11.75 0 01-14.1-8.81 8.66 8.66 0 01-.22-1.32l22.75-5.25a10.69 10.69 0 01.38 1.29 11.75 11.75 0 01-8.81 14.09zM157.61 62.24l.65-.14-.65.15z"/></g></svg>