<svg viewBox="0 0 208 208" xmlns="http://www.w3.org/2000/svg"><g fill="#097cb0"><circle cx="50.5" cy="67.28" r="12.58"/><path d="m76.43 116.91-12.92-7.76-10.77-17.94s-2.91-6-7.25-7.25l-6-1.39a5.67 5.67 0 0 0 -4.75 1.06l-20.85 16.25a2.68 2.68 0 0 0 -1 1.54q-2.17 9.9-4.33 19.8a4.64 4.64 0 0 0 3.67 5.55h.19a4.64 4.64 0 0 0 5.33-3.29q2.34-8.22 4.67-16.44a.58.58 0 0 1 .23-.32l10-7.18s.11 0 .09.06l-6.34 25.4a2.63 2.63 0 0 0 0 .74l-6.62 22-14.14 20.15a6.3 6.3 0 0 0 1.55 8.78 6.69 6.69 0 0 0 8.8-1.55c2.13-2.77 14.75-19.64 14.75-19.64l5.59-15.23 26.11 36a6.31 6.31 0 0 0 10.56-6.87l-27.19-43.9 4.19-17.78 6 8.45a3.2 3.2 0 0 0 1.23 1l18 8.73a4.1 4.1 0 0 0 4.87-.87 1.61 1.61 0 0 0 .32-.42c1.58-3.42.43-4.9-3.99-7.68zm124.07-88.02h-61.5a3 3 0 0 0 -2.94 2.4 5.26 5.26 0 0 0 -.06.71v57.51a3 3 0 0 0 6 0v-54.62h49l-22.77 17a3 3 0 0 0 -1.2 2.4l.06 121.15a3 3 0 0 0 1.58 2.64 3 3 0 0 0 1.42.35 3 3 0 0 0 1.65-.49l30-19.86.35-.26a3 3 0 0 0 1.39-2.54v-123.39a3 3 0 0 0 -2.98-3zm-3 124.84-24.45 16.16-.05-114.07 24.5-18.32z"/><path d="m184 100.55v14.13h-5.7v4h7.7a2 2 0 0 0 2-2v-18.13a2 2 0 0 0 -2-2h-7.76v4zm-39.42 21.81a3.34 3.34 0 0 0 -.33-.32l-12.52-12.53a9 9 0 0 0 -12.78 0 9 9 0 0 0 0 12.78l1.51 1.52h-16.93a9 9 0 1 0 0 18.08h16.93l-1.46 1.54a9 9 0 0 0 12.78 12.79l12.59-12.59.21-.21 8.42-8.42a3 3 0 0 0 0-4.24zm-4.4 16.92-.05.06-12.64 12.66a3.05 3.05 0 0 1 -4.3 0 3.05 3.05 0 0 1 0-4.31l6.65-6.65a3 3 0 0 0 -2.12-5.12h-24.18a3 3 0 1 1 0-6.08h24.16a3 3 0 0 0 2.12-5.12l-6.63-6.64a3 3 0 0 1 0-4.3 3 3 0 0 1 4.3 0l12.69 12.69 6.37 6.37z"/></g></svg>