<svg viewBox="0 0 208 208" xmlns="http://www.w3.org/2000/svg"><g fill="#097cb0"><path d="m47.6 131.2a17.16 17.16 0 1 0 17.16 17.16 17.16 17.16 0 0 0 -17.16-17.16zm-.07 29.25a12.16 12.16 0 1 1 12.16-12.16 12.17 12.17 0 0 1 -12.16 12.16zm95.32-30.16a17.16 17.16 0 0 0 -17.16 17.16 17.16 17.16 0 0 0 34.32 0 17.16 17.16 0 0 0 -17.16-17.16zm-.07 5a12.15 12.15 0 1 1 -12.16 12.15 12.18 12.18 0 0 1 12.16-12.19zm-22.78 17.01h-49.48a3 3 0 1 0 0 6h49.48a3 3 0 1 0 0-6zm-69.8-33.59h64.32a3 3 0 0 0 0-6h-64.32a3 3 0 0 0 0 6z"/><path d="m181.34 127.62a17.51 17.51 0 0 0 -10.23-9l-35.59-10.13a54.4 54.4 0 0 1 -10.41-4.48l-18.45-10.88a29.36 29.36 0 0 0 -12.89-3.53h-32.71a38.32 38.32 0 0 0 -12.9 2.65l-32.22 13.84c-4.23 1.81-7.43 6-7.43 9.84a8.81 8.81 0 0 1 -1.82 5.13c-1.78 1.69-3.69 4.61-3.69 7v14.43a3.05 3.05 0 0 0 .5 1.66l5.16 7.72a15.65 15.65 0 0 0 12 6.41h4.24a3 3 0 0 0 0-6h-4.25a9.86 9.86 0 0 1 -7-3.74l-4.65-6.94v-13.44a7.23 7.23 0 0 1 1.82-2.75c2.1-2 3.69-6.07 3.69-9.48 0-1.08 1.51-3.35 3.8-4.33l32.22-13.84a32.47 32.47 0 0 1 10.53-2.16h32.71a23.45 23.45 0 0 1 9.83 2.69l18.45 10.92a59.73 59.73 0 0 0 11.83 5.09l35.58 10.13a11.75 11.75 0 0 1 6.37 5.58l1.3 3a13.62 13.62 0 0 1 .05 8.87l-2.81 6.65a7 7 0 0 1 -5.71 3.79h-3a3 3 0 0 0 0 6h3a13 13 0 0 0 11.24-7.46l2.81-6.65a19.55 19.55 0 0 0 -.08-13.59zm17.41-85.14h-51.49a3.48 3.48 0 0 0 -3.26 3.64v47.67a3.48 3.48 0 0 0 3.26 3.64l12.89-.22v-11.39c0-4.44 3.21-8 7.18-8h14.36c4 0 7.2 3.61 7.2 8.06v11.33l9.86.22a3.47 3.47 0 0 0 3.25-3.64v-47.67a3.47 3.47 0 0 0 -3.25-3.64zm-24.75 32.19a9.11 9.11 0 1 1 9.1-9.1 9.11 9.11 0 0 1 -9.1 9.1z"/></g></svg>